HIERARCHY
ROOT Hips
{
 OFFSET 0.000000 0.000000 0.000000
 CHANNELS 6 Xposition Yposition Zposition Yrotation Xrotation Zrotation
 JOINT Chest
 {
  OFFSET 0.000000 10.080317 -0.001081
  CHANNELS 3 Yrotation Xrotation Zrotation
  JOINT Chest2
  {
   OFFSET 0.000000 11.096852 0.001963
   CHANNELS 3 Yrotation Xrotation Zrotation
   JOINT Chest3
   {
    OFFSET 0.000000 10.026525 0.000000
    CHANNELS 3 Yrotation Xrotation Zrotation
    JOINT Chest4
    {
     OFFSET 0.000000 10.026525 0.000000
     CHANNELS 3 Yrotation Xrotation Zrotation
     JOINT Neck
     {
      OFFSET 0.000000 14.108171 0.000000
      CHANNELS 3 Yrotation Xrotation Zrotation
      JOINT Head
      {
       OFFSET 0.000000 9.333493 0.004668
       CHANNELS 3 Yrotation Xrotation Zrotation
       End Site
       {
        OFFSET 0.000000 17.851786 0.002438
       }
      }
     }
     JOINT RightCollar
     {
      OFFSET -3.071622 7.873185 0.000000
      CHANNELS 3 Yrotation Xrotation Zrotation
      JOINT RightShoulder
      {
       OFFSET -14.378659 0.000000 0.000000
       CHANNELS 3 Yrotation Xrotation Zrotation
       JOINT RightElbow
       {
        OFFSET -30.778728 0.000000 0.000000
        CHANNELS 3 Yrotation Xrotation Zrotation
        JOINT RightWrist
        {
         OFFSET -25.164217 0.000000 0.000000
         CHANNELS 3 Yrotation Xrotation Zrotation
         End Site
         {
          OFFSET -18.796788 0.000000 0.000000
         }
        }
       }
      }
     }
     JOINT LeftCollar
     {
      OFFSET 3.071622 7.873185 0.000000
      CHANNELS 3 Yrotation Xrotation Zrotation
      JOINT LeftShoulder
      {
       OFFSET 14.378659 0.000000 0.000000
       CHANNELS 3 Yrotation Xrotation Zrotation
       JOINT LeftElbow
       {
        OFFSET 30.778728 0.000000 0.000000
        CHANNELS 3 Yrotation Xrotation Zrotation
        JOINT LeftWrist
        {
         OFFSET 25.164217 0.000000 0.000000
         CHANNELS 3 Yrotation Xrotation Zrotation
         End Site
         {
          OFFSET 18.796788 0.000000 0.000000
         }
        }
       }
      }
     }
    }
   }
  }
 }
 JOINT RightHip
 {
  OFFSET -8.194923 0.005295 0.000540
  CHANNELS 3 Yrotation Xrotation Zrotation
  JOINT RightKnee
  {
   OFFSET 0.000000 -42.473320 -0.000511
   CHANNELS 3 Yrotation Xrotation Zrotation
   JOINT RightAnkle
   {
    OFFSET 0.000000 -41.474259 -0.000865
    CHANNELS 3 Yrotation Xrotation Zrotation
    JOINT RightToe
    {
     OFFSET 0.000000 -7.354994 16.712725
     CHANNELS 3 Yrotation Xrotation Zrotation
     End Site
     {
      OFFSET 0.000000 -1.553903 6.764158
     }
    }
   }
  }
 }
 JOINT LeftHip
 {
  OFFSET 8.194923 0.005295 0.000540
  CHANNELS 3 Yrotation Xrotation Zrotation
  JOINT LeftKnee
  {
   OFFSET 0.000000 -42.473320 -0.000511
   CHANNELS 3 Yrotation Xrotation Zrotation
   JOINT LeftAnkle
   {
    OFFSET 0.000000 -41.474259 -0.000865
    CHANNELS 3 Yrotation Xrotation Zrotation
    JOINT LeftToe
    {
     OFFSET 0.000000 -7.354994 16.712725
     CHANNELS 3 Yrotation Xrotation Zrotation
     End Site
     {
      OFFSET 0.000000 -1.553903 6.764158
     }
    }
   }
  }
 }
}
MOTION
Frames: 6
Frame Time: 0.016667
-379.102041 83.334161 -151.903728 -170.515292 14.085642 3.780618 -1.502284 4.745338 3.029487 -0.675628 2.450275 1.298244 -0.675628 2.450275 1.298244 -0.511854 1.836284 0.976246 18.735440 17.029250 -5.032746 36.117706 -0.904151 -15.109480 0.196336 -6.678216 12.395110 -4.142695 -36.313107 43.674795 112.210064 17.183794 13.412300 -4.776541 17.452219 -69.803642 -11.983551 -8.566986 -8.736947 4.256253 -48.563294 -58.733583 -106.372663 10.277290 -26.597636 4.694621 14.492356 66.657226 -6.782984 -47.506842 3.694843 -14.775455 55.240708 -18.219274 -18.173809 -24.516015 6.464277 0.888278 1.339696 0.404731 11.138677 -11.987040 3.766304 -9.812280 43.838235 -19.175978 -1.378955 -29.373817 7.733651 0.392912 -15.985061 -2.174415
-379.145293 83.556134 -150.053823 -170.424281 14.389073 3.760917 -1.668567 4.809714 3.160008 -0.639206 2.522386 1.292254 -0.639206 2.522386 1.292254 -0.484666 1.890451 0.971675 18.547988 16.984935 -5.031933 35.786721 -1.037370 -15.074247 0.877921 -7.699674 11.982368 -1.848823 -36.709429 42.551699 108.531337 18.670379 12.606894 -4.352182 16.980706 -70.196464 -12.822214 -9.508145 -8.329266 2.512028 -49.191103 -58.570789 -103.617959 12.768432 -26.075684 4.376818 14.297704 66.989662 -8.265054 -48.573814 4.350315 -13.433918 54.225232 -17.205090 -17.457407 -22.970387 5.660385 0.946564 1.259052 0.233242 10.724759 -12.687862 3.902455 -9.277498 45.253831 -19.118078 -1.623141 -28.310201 7.158257 0.869187 -17.367083 -2.099122
-379.181389 83.703667 -148.206315 -170.409095 14.011793 3.431560 -1.988728 5.387712 3.470191 -0.565861 2.563894 1.250388 -0.565861 2.563894 1.250388 -0.429576 1.921775 0.940011 18.307160 16.949869 -4.947482 35.331631 -1.196860 -14.872527 1.523550 -8.852253 11.623793 0.733257 -37.184935 41.235523 103.768013 20.037518 11.949857 -3.583252 16.366078 -70.719564 -13.876428 -10.359768 -7.809823 0.628151 -49.954828 -58.335816 -100.060275 15.699343 -25.420145 3.935473 13.986267 67.358887 -9.895473 -48.653218 5.323660 -12.186822 52.763000 -16.179752 -16.975109 -21.452629 4.914728 1.140126 1.444710 0.091226 9.773705 -11.846625 4.527432 -8.516177 46.099265 -18.612312 -1.150018 -27.161273 7.015916 1.191976 -18.830138 -3.093066
-379.325241 83.831706 -146.217649 -171.371485 13.988106 3.485186 -1.487529 5.509988 3.093044 -0.494995 2.554561 1.203854 -0.494995 2.554561 1.203854 -0.376221 1.914956 0.904812 18.056291 16.889112 -4.879829 34.868673 -1.398675 -14.704912 2.170406 -10.021069 11.210510 3.435147 -37.733351 39.777019 98.051704 21.135974 11.415077 -2.382169 15.646053 -71.282049 -15.157126 -11.178651 -7.341373 -1.557312 -50.783520 -57.738206 -95.653557 18.818364 -24.558869 3.368504 13.721573 67.710629 -11.819140 -49.595295 6.448277 -9.512728 51.963049 -14.731756 -15.860516 -19.196370 4.325896 0.701009 0.904440 -0.362628 9.504444 -10.471226 4.499784 -8.152834 46.384971 -18.489251 0.338977 -25.269643 7.173560 1.338159 -21.309686 -4.662861
-379.445484 83.924211 -144.128092 -172.116544 13.829771 3.246288 -1.287414 5.595339 2.964865 -0.474676 2.534691 1.168826 -0.474676 2.534691 1.168826 -0.360801 1.900120 0.878447 17.869056 16.790158 -4.836503 34.537217 -1.642736 -14.607650 2.939138 -11.168490 10.780163 6.368222 -38.600748 38.212521 91.374728 22.104683 11.130252 -0.786658 14.880659 -71.771162 -16.393101 -11.968977 -6.916920 -4.228709 -51.798382 -56.640623 -90.266056 22.073142 -23.442407 2.717933 13.439868 68.030569 -13.129527 -50.181494 7.450531 -7.865940 50.646850 -13.770753 -15.017632 -16.784397 4.027673 0.377911 0.556107 -0.803474 8.217910 -8.640284 4.871276 -8.316637 46.331752 -18.586637 1.622769 -23.272252 7.521957 1.507834 -23.899492 -5.980339
-379.588353 84.021242 -141.939199 -172.730753 13.640255 2.977070 -1.170380 5.572474 2.800664 -0.479496 2.511427 1.151591 -0.479496 2.511427 1.151591 -0.364301 1.882676 0.865527 17.701041 16.674196 -4.806181 34.248289 -1.907505 -14.542972 3.821040 -12.251974 10.294130 9.647235 -39.637671 36.515594 83.543674 23.006730 10.613611 1.061354 14.341356 -71.933352 -17.779190 -12.776192 -6.509209 -7.488832 -52.900942 -54.969556 -83.828711 25.260175 -22.000434 1.897689 13.222117 68.186153 -14.261117 -50.521681 8.536807 -6.283671 48.877846 -13.058629 -14.493172 -14.110940 3.940238 0.129978 0.290724 -1.187025 6.774641 -6.553038 5.225750 -8.038176 46.129148 -18.804915 2.892188 -20.666523 7.811338 1.332103 -26.941304 -6.908794
